<?xml version="1.0" encoding="UTF-8"?>
<!DOCTYPE svg PUBLIC "-//W3C//DTD SVG 1.1//EN" "http://www.w3.org/Graphics/SVG/1.1/DTD/svg11.dtd">
<svg xmlns="http://www.w3.org/2000/svg" version="1.1" width="511px" height="511px" style="shape-rendering:geometricPrecision; text-rendering:geometricPrecision; image-rendering:optimizeQuality; fill-rule:evenodd; clip-rule:evenodd" xmlns:xlink="http://www.w3.org/1999/xlink">
<g><path style="opacity:0.992" fill="#49a7ff" d="M 235.5,1.5 C 317.63,-3.19095 380.13,29.1424 423,98.5C 447.55,143.564 453.216,190.897 440,240.5C 431.406,267.689 420.072,293.689 406,318.5C 364.529,388.336 315.029,452.169 257.5,510C 256.833,510.167 256.167,510.333 255.5,510.5C 248.577,505.082 242.077,499.082 236,492.5C 193.563,446.582 155.23,397.582 121,345.5C 104.052,318.938 89.7183,290.938 78,261.5C 51.4793,188.618 63.1459,122.618 113,63.5C 146.335,28.0825 187.168,7.41578 235.5,1.5 Z"/></g>
<g><path style="opacity:1" fill="#fefefe" d="M 241.5,65.5 C 297.21,62.7663 339.377,85.0997 368,132.5C 383.065,162.083 386.732,193.083 379,225.5C 362.362,278.808 326.529,309.975 271.5,319C 210.685,323.352 166.518,298.519 139,244.5C 121.185,200.14 125.519,158.14 152,118.5C 174.773,88.865 204.607,71.1983 241.5,65.5 Z"/></g>
<g><path style="opacity:1" fill="#2296f3" d="M 242.5,105.5 C 276.098,102.304 304.264,112.971 327,137.5C 347.559,166.469 347.559,195.469 327,224.5C 310.574,242.797 290.074,253.297 265.5,256C 234.5,256.667 203.5,256.667 172.5,256C 169.793,254.136 168.959,251.636 170,248.5C 176.31,241.869 182.143,234.869 187.5,227.5C 159.426,188.059 164.093,152.893 201.5,122C 214.039,113.438 227.706,107.938 242.5,105.5 Z"/></g>
<g><path style="opacity:1" fill="#f7f9fa" d="M 208.5,170.5 C 218.902,169.066 223.735,173.4 223,183.5C 220.426,190.148 215.593,192.648 208.5,191C 202.891,187.723 201.058,182.89 203,176.5C 204.36,173.977 206.193,171.977 208.5,170.5 Z"/></g>
<g><path style="opacity:1" fill="#f6f8fa" d="M 251.5,170.5 C 265.713,170.097 269.713,176.263 263.5,189C 255.912,193.507 250.079,192.007 246,184.5C 244.349,178.36 246.182,173.694 251.5,170.5 Z"/></g>
<g><path style="opacity:1" fill="#f7f9fa" d="M 294.5,170.5 C 305.989,169.155 310.823,174.155 309,185.5C 305.629,190.85 300.796,192.683 294.5,191C 286.606,184.009 286.606,177.176 294.5,170.5 Z"/></g>
</svg>
