<?xml version="1.0" encoding="UTF-8"?>
<!DOCTYPE svg PUBLIC "-//W3C//DTD SVG 1.1//EN" "http://www.w3.org/Graphics/SVG/1.1/DTD/svg11.dtd">
<svg xmlns="http://www.w3.org/2000/svg" version="1.1" width="511px" height="1023px" style="shape-rendering:geometricPrecision; text-rendering:geometricPrecision; image-rendering:optimizeQuality; fill-rule:evenodd; clip-rule:evenodd" xmlns:xlink="http://www.w3.org/1999/xlink">
<g><path style="opacity:0.992" fill="#ffd649" d="M 235.5,1.5 C 317.63,-3.19095 380.13,29.1424 423,98.5C 447.55,143.564 453.216,190.897 440,240.5C 431.406,267.689 420.072,293.689 406,318.5C 364.013,389.014 313.847,453.347 255.5,511.5C 194.701,450.893 142.867,383.559 100,309.5C 85.7073,283.917 75.0407,256.917 68,228.5C 55.4235,152.545 78.5902,90.0452 137.5,41C 166.584,18.917 199.251,5.75038 235.5,1.5 Z"/></g>
<g><path style="opacity:1" fill="#fefefd" d="M 241.5,65.5 C 305.959,63.1796 350.792,91.5129 376,150.5C 391.779,204.144 379.612,250.311 339.5,289C 302.659,318.968 261.326,327.302 215.5,314C 170.914,297.655 142.747,266.488 131,220.5C 121.461,160.762 141.961,114.595 192.5,82C 207.915,73.362 224.248,67.862 241.5,65.5 Z"/></g>
<g><path style="opacity:1" fill="#e0505f" d="M 245.5,105.5 C 293.988,104.503 325.154,127.17 339,173.5C 344.474,211.032 331.974,240.865 301.5,263C 258.854,285.776 221.021,279.609 188,244.5C 167.9,216.894 164.233,187.227 177,155.5C 191.317,126.997 214.151,110.33 245.5,105.5 Z"/></g>
<g><path style="opacity:1" fill="#fefdfd" d="M 210.5,220.5 C 209.164,218.99 207.997,217.323 207,215.5C 206.195,198.456 206.362,181.456 207.5,164.5C 208.962,163.542 210.295,162.376 211.5,161C 229.833,160.333 248.167,160.333 266.5,161C 268.667,161.833 270.167,163.333 271,165.5C 271.667,182.5 271.667,199.5 271,216.5C 270.535,217.931 269.701,219.097 268.5,220C 258.762,221.143 248.928,221.643 239,221.5C 229.425,221.488 219.925,221.154 210.5,220.5 Z"/></g>
<g><path style="opacity:1" fill="#fefbfb" d="M 297.5,162.5 C 299.722,162.178 301.556,162.845 303,164.5C 303.667,182.167 303.667,199.833 303,217.5C 302.196,218.804 301.029,219.471 299.5,219.5C 292.472,216.57 285.639,213.236 279,209.5C 278.333,197.167 278.333,184.833 279,172.5C 285.308,169.265 291.475,165.932 297.5,162.5 Z"/></g>
<g><path style="opacity:1" fill="#db3748" d="M 207.5,164.5 C 206.362,181.456 206.195,198.456 207,215.5C 207.997,217.323 209.164,218.99 210.5,220.5C 210.565,220.938 210.399,221.272 210,221.5C 208.287,220.122 206.953,218.455 206,216.5C 205.333,199.5 205.333,182.5 206,165.5C 206.333,164.833 206.667,164.167 207,163.5C 207.399,163.728 207.565,164.062 207.5,164.5 Z"/></g>
<g><path style="opacity:1" fill="#df4d5c" d="M 228.5,185.5 C 235.841,185.334 243.174,185.5 250.5,186C 254.5,189.333 254.5,192.667 250.5,196C 243.167,196.667 235.833,196.667 228.5,196C 224.565,192.504 224.565,189.004 228.5,185.5 Z"/></g>
</svg>
